<svg width="24" height="24" viewBox="0 0 24 24" fill="none" xmlns="http://www.w3.org/2000/svg">
<path fill-rule="evenodd" clip-rule="evenodd" d="M11.9441 2.25H12.0544C13.4925 2.24998 14.6478 2.24996 15.5556 2.37202C16.4965 2.49852 17.2831 2.7684 17.9069 3.39228C18.5308 4.01617 18.8007 4.8027 18.9272 5.74366C19.0493 6.65146 19.0492 7.80677 19.0492 9.24484V14.7552C19.0492 16.1932 19.0493 17.3485 18.9272 18.2563C18.8007 19.1973 18.5308 19.9838 17.9069 20.6077C17.2831 21.2316 16.4965 21.5015 15.5556 21.628C14.6478 21.75 13.4924 21.75 12.0544 21.75H11.9441C10.506 21.75 9.35068 21.75 8.44288 21.628C7.50192 21.5015 6.71539 21.2316 6.0915 20.6077C5.46762 19.9838 5.19774 19.1973 5.07123 18.2563C4.94918 17.3485 4.9492 16.1932 4.94922 14.7552V9.24484C4.9492 7.80677 4.94918 6.65146 5.07123 5.74366C5.19774 4.8027 5.46762 4.01617 6.0915 3.39228C6.71539 2.7684 7.50192 2.49852 8.44288 2.37202C9.35068 2.24996 10.506 2.24998 11.9441 2.25ZM8.38687 3.8985C7.77278 4.00871 7.41619 4.18892 7.15216 4.45294C6.85343 4.75167 6.662 5.16891 6.55786 5.94353C6.45081 6.73973 6.44922 7.79387 6.44922 9.3V14.7C6.44922 16.2061 6.45081 17.2603 6.55786 18.0565C6.662 18.8311 6.85343 19.2483 7.15216 19.5471C7.45089 19.8458 7.86813 20.0372 8.64275 20.1414C9.43895 20.2484 10.4931 20.25 11.9992 20.25C13.5053 20.25 14.5595 20.2484 15.3557 20.1414C16.1303 20.0372 16.5475 19.8458 16.8463 19.5471C17.145 19.2483 17.3364 18.8311 17.4406 18.0565C17.5476 17.2603 17.5492 16.2061 17.5492 14.7V9.3C17.5492 7.79387 17.5476 6.73973 17.4406 5.94353C17.3364 5.16891 17.145 4.75167 16.8463 4.45294C16.6103 4.21699 16.3004 4.04798 15.7989 3.93604C15.7364 4.30266 15.6748 4.62974 15.5945 4.90317C15.4852 5.27567 15.3189 5.63346 14.995 5.92086C14.7834 6.10859 14.5291 6.2111 14.3114 6.27346C14.0861 6.33799 13.8399 6.37601 13.5965 6.40021C13.113 6.44827 12.5436 6.45 12.0008 6.45C11.4606 6.45 10.9331 6.4485 10.4914 6.39927C10.0764 6.353 9.56935 6.25107 9.19716 5.92086C8.87323 5.63346 8.70695 5.27567 8.59763 4.90318C8.51466 4.62044 8.45162 4.28035 8.38687 3.8985ZM9.88669 3.76889C9.94075 4.08022 9.98505 4.30402 10.0369 4.48076C10.1027 4.70485 10.1577 4.76744 10.1911 4.79746C10.1938 4.79928 10.219 4.81659 10.2868 4.83835C10.3698 4.86502 10.4896 4.88977 10.6576 4.9085C11.0004 4.94671 11.4395 4.95 12.0008 4.95C12.5595 4.95 13.052 4.94694 13.4482 4.90756C13.6446 4.88803 13.7928 4.86168 13.8984 4.83143C13.9678 4.81157 13.9996 4.79537 14.008 4.79097C14.0418 4.75836 14.0938 4.68988 14.1552 4.48076C14.2067 4.30531 14.2507 4.0835 14.3043 3.77572C13.676 3.7506 12.9225 3.75 11.9992 3.75C11.1684 3.75 10.475 3.75049 9.88669 3.76889ZM10.3484 18.3008C10.3484 17.8866 10.6842 17.5508 11.0984 17.5508H12.8984C13.3127 17.5508 13.6484 17.8866 13.6484 18.3008C13.6484 18.715 13.3127 19.0508 12.8984 19.0508H11.0984C10.6842 19.0508 10.3484 18.715 10.3484 18.3008Z" fill="#344054" style="fill:#344054;fill:color(display-p3 0.2039 0.2510 0.3294);fill-opacity:1;"/>
</svg>
